<mxfile host="Electron" modified="2024-03-19T12:09:31.476Z" agent="Mozilla/5.0 (Windows NT 10.0; Win64; x64) AppleWebKit/537.36 (KHTML, like Gecko) draw.io/23.1.5 Chrome/120.0.6099.109 Electron/28.1.0 Safari/537.36" etag="zSA9V_rLu0oddeexSF6v" version="23.1.5" type="device" pages="2">
  <diagram name="‫עמוד-1‬" id="Xi5OoeN6VpEvZ6fCJa3F">
    <mxGraphModel dx="631" dy="436" grid="1" gridSize="10" guides="1" tooltips="1" connect="1" arrows="1" fold="1" page="1" pageScale="1" pageWidth="827" pageHeight="1169" math="0" shadow="0">
      <root>
        <mxCell id="0" />
        <mxCell id="1" parent="0" />
        <mxCell id="phy1LCydoq4TG-cayTl3-1" value="Page 35" style="text;html=1;align=center;verticalAlign=middle;whiteSpace=wrap;rounded=0;" parent="1" vertex="1">
          <mxGeometry x="370" width="60" height="30" as="geometry" />
        </mxCell>
        <mxCell id="phy1LCydoq4TG-cayTl3-2" value="no&#39; 7" style="text;html=1;align=center;verticalAlign=middle;whiteSpace=wrap;rounded=0;" parent="1" vertex="1">
          <mxGeometry x="280" y="40" width="60" height="30" as="geometry" />
        </mxCell>
        <mxCell id="phy1LCydoq4TG-cayTl3-3" value="start" style="strokeWidth=2;html=1;shape=mxgraph.flowchart.terminator;whiteSpace=wrap;" parent="1" vertex="1">
          <mxGeometry x="260" y="80" width="100" height="60" as="geometry" />
        </mxCell>
        <mxCell id="phy1LCydoq4TG-cayTl3-5" value="קלוט נתון.&amp;nbsp;הדפס שתי&amp;nbsp;סדרות נפרדות&lt;br&gt;&lt;br&gt;א. הדפס את סדרת המספרים מ- 1 עד N.&lt;br&gt;ב. בהמשך להדפסה הקודמת הדפס סידרה נוספת שבה כל מספר מהסדרה הקודמת&lt;br&gt;מוכפל ב- .2&lt;br&gt;סידרה א - 3 2 1&lt;br&gt;סידרה ב - 6 4 2" style="shape=note;whiteSpace=wrap;html=1;backgroundOutline=1;fontColor=#000000;darkOpacity=0.05;fillColor=#FFF9B2;strokeColor=none;fillStyle=solid;direction=west;gradientDirection=north;gradientColor=#FFF2A1;shadow=1;size=20;pointerEvents=1;align=right;" parent="1" vertex="1">
          <mxGeometry x="30" y="80" width="140" height="160" as="geometry" />
        </mxCell>
        <mxCell id="phy1LCydoq4TG-cayTl3-6" value="" style="verticalLabelPosition=bottom;verticalAlign=top;html=1;shape=card;whiteSpace=wrap;size=20;arcSize=12;" parent="1" vertex="1">
          <mxGeometry x="260" y="160" width="100" height="60" as="geometry" />
        </mxCell>
        <mxCell id="phy1LCydoq4TG-cayTl3-7" value="Num" style="text;html=1;align=center;verticalAlign=middle;whiteSpace=wrap;rounded=0;" parent="1" vertex="1">
          <mxGeometry x="280" y="175" width="60" height="30" as="geometry" />
        </mxCell>
        <mxCell id="phy1LCydoq4TG-cayTl3-10" value="Index=1" style="rounded=0;whiteSpace=wrap;html=1;" parent="1" vertex="1">
          <mxGeometry x="250" y="240" width="120" height="60" as="geometry" />
        </mxCell>
        <mxCell id="phy1LCydoq4TG-cayTl3-13" value="Index=2" style="rounded=0;whiteSpace=wrap;html=1;" parent="1" vertex="1">
          <mxGeometry x="414" y="420" width="120" height="60" as="geometry" />
        </mxCell>
        <mxCell id="phy1LCydoq4TG-cayTl3-9" value="for (Index &amp;lt;= Num)" style="ellipse;whiteSpace=wrap;html=1;aspect=fixed;" parent="1" vertex="1">
          <mxGeometry x="270" y="320" width="80" height="80" as="geometry" />
        </mxCell>
        <mxCell id="phy1LCydoq4TG-cayTl3-11" value="Index" style="shape=document;whiteSpace=wrap;html=1;boundedLbl=1;" parent="1" vertex="1">
          <mxGeometry x="250" y="420" width="120" height="80" as="geometry" />
        </mxCell>
        <mxCell id="phy1LCydoq4TG-cayTl3-12" value="" style="rounded=0;whiteSpace=wrap;html=1;fillColor=#050505;" parent="1" vertex="1">
          <mxGeometry x="240" y="520" width="140" height="10" as="geometry" />
        </mxCell>
        <mxCell id="phy1LCydoq4TG-cayTl3-16" value="for (Index &amp;lt;= Num*2)" style="ellipse;whiteSpace=wrap;html=1;aspect=fixed;" parent="1" vertex="1">
          <mxGeometry x="430" y="500" width="80" height="80" as="geometry" />
        </mxCell>
        <mxCell id="phy1LCydoq4TG-cayTl3-17" value="Index" style="shape=document;whiteSpace=wrap;html=1;boundedLbl=1;" parent="1" vertex="1">
          <mxGeometry x="410" y="600" width="120" height="80" as="geometry" />
        </mxCell>
        <mxCell id="phy1LCydoq4TG-cayTl3-18" value="" style="rounded=0;whiteSpace=wrap;html=1;fillColor=#050505;" parent="1" vertex="1">
          <mxGeometry x="400" y="780" width="140" height="10" as="geometry" />
        </mxCell>
        <mxCell id="phy1LCydoq4TG-cayTl3-19" value="end" style="strokeWidth=2;html=1;shape=mxgraph.flowchart.terminator;whiteSpace=wrap;" parent="1" vertex="1">
          <mxGeometry x="550" y="600" width="100" height="60" as="geometry" />
        </mxCell>
        <mxCell id="phy1LCydoq4TG-cayTl3-20" value="" style="endArrow=classic;html=1;rounded=0;" parent="1" source="phy1LCydoq4TG-cayTl3-3" target="phy1LCydoq4TG-cayTl3-6" edge="1">
          <mxGeometry width="50" height="50" relative="1" as="geometry">
            <mxPoint x="300" y="320" as="sourcePoint" />
            <mxPoint x="350" y="270" as="targetPoint" />
          </mxGeometry>
        </mxCell>
        <mxCell id="phy1LCydoq4TG-cayTl3-21" value="" style="endArrow=classic;html=1;rounded=0;" parent="1" source="phy1LCydoq4TG-cayTl3-6" target="phy1LCydoq4TG-cayTl3-10" edge="1">
          <mxGeometry width="50" height="50" relative="1" as="geometry">
            <mxPoint x="300" y="320" as="sourcePoint" />
            <mxPoint x="350" y="270" as="targetPoint" />
          </mxGeometry>
        </mxCell>
        <mxCell id="phy1LCydoq4TG-cayTl3-22" value="" style="endArrow=classic;html=1;rounded=0;" parent="1" source="phy1LCydoq4TG-cayTl3-10" target="phy1LCydoq4TG-cayTl3-9" edge="1">
          <mxGeometry width="50" height="50" relative="1" as="geometry">
            <mxPoint x="300" y="320" as="sourcePoint" />
            <mxPoint x="350" y="270" as="targetPoint" />
          </mxGeometry>
        </mxCell>
        <mxCell id="phy1LCydoq4TG-cayTl3-23" value="" style="endArrow=classic;html=1;rounded=0;" parent="1" source="phy1LCydoq4TG-cayTl3-9" target="phy1LCydoq4TG-cayTl3-11" edge="1">
          <mxGeometry width="50" height="50" relative="1" as="geometry">
            <mxPoint x="300" y="320" as="sourcePoint" />
            <mxPoint x="350" y="270" as="targetPoint" />
          </mxGeometry>
        </mxCell>
        <mxCell id="phy1LCydoq4TG-cayTl3-26" value="" style="endArrow=classic;html=1;rounded=0;" parent="1" source="phy1LCydoq4TG-cayTl3-9" target="phy1LCydoq4TG-cayTl3-13" edge="1">
          <mxGeometry width="50" height="50" relative="1" as="geometry">
            <mxPoint x="300" y="460" as="sourcePoint" />
            <mxPoint x="350" y="410" as="targetPoint" />
            <Array as="points">
              <mxPoint x="474" y="360" />
            </Array>
          </mxGeometry>
        </mxCell>
        <mxCell id="phy1LCydoq4TG-cayTl3-27" value="" style="endArrow=classic;html=1;rounded=0;" parent="1" source="phy1LCydoq4TG-cayTl3-13" target="phy1LCydoq4TG-cayTl3-16" edge="1">
          <mxGeometry width="50" height="50" relative="1" as="geometry">
            <mxPoint x="300" y="590" as="sourcePoint" />
            <mxPoint x="350" y="540" as="targetPoint" />
          </mxGeometry>
        </mxCell>
        <mxCell id="phy1LCydoq4TG-cayTl3-28" value="" style="endArrow=classic;html=1;rounded=0;" parent="1" source="phy1LCydoq4TG-cayTl3-16" target="phy1LCydoq4TG-cayTl3-17" edge="1">
          <mxGeometry width="50" height="50" relative="1" as="geometry">
            <mxPoint x="300" y="590" as="sourcePoint" />
            <mxPoint x="350" y="540" as="targetPoint" />
          </mxGeometry>
        </mxCell>
        <mxCell id="phy1LCydoq4TG-cayTl3-30" value="" style="endArrow=classic;html=1;rounded=0;" parent="1" source="phy1LCydoq4TG-cayTl3-16" target="phy1LCydoq4TG-cayTl3-19" edge="1">
          <mxGeometry width="50" height="50" relative="1" as="geometry">
            <mxPoint x="300" y="590" as="sourcePoint" />
            <mxPoint x="350" y="540" as="targetPoint" />
            <Array as="points">
              <mxPoint x="600" y="540" />
            </Array>
          </mxGeometry>
        </mxCell>
        <mxCell id="phy1LCydoq4TG-cayTl3-32" value="index=+2" style="rounded=0;whiteSpace=wrap;html=1;" parent="1" vertex="1">
          <mxGeometry x="410" y="700" width="120" height="60" as="geometry" />
        </mxCell>
        <mxCell id="phy1LCydoq4TG-cayTl3-33" value="" style="endArrow=classic;html=1;rounded=0;exitX=0.492;exitY=0.844;exitDx=0;exitDy=0;exitPerimeter=0;" parent="1" source="phy1LCydoq4TG-cayTl3-11" target="phy1LCydoq4TG-cayTl3-12" edge="1">
          <mxGeometry width="50" height="50" relative="1" as="geometry">
            <mxPoint x="300" y="660" as="sourcePoint" />
            <mxPoint x="350" y="610" as="targetPoint" />
          </mxGeometry>
        </mxCell>
        <mxCell id="phy1LCydoq4TG-cayTl3-35" value="" style="endArrow=classic;html=1;rounded=0;exitX=0.5;exitY=0.835;exitDx=0;exitDy=0;exitPerimeter=0;" parent="1" source="phy1LCydoq4TG-cayTl3-17" target="phy1LCydoq4TG-cayTl3-32" edge="1">
          <mxGeometry width="50" height="50" relative="1" as="geometry">
            <mxPoint x="300" y="660" as="sourcePoint" />
            <mxPoint x="350" y="610" as="targetPoint" />
          </mxGeometry>
        </mxCell>
        <mxCell id="phy1LCydoq4TG-cayTl3-36" value="" style="endArrow=classic;html=1;rounded=0;entryX=0.5;entryY=0;entryDx=0;entryDy=0;" parent="1" source="phy1LCydoq4TG-cayTl3-32" target="phy1LCydoq4TG-cayTl3-18" edge="1">
          <mxGeometry width="50" height="50" relative="1" as="geometry">
            <mxPoint x="300" y="660" as="sourcePoint" />
            <mxPoint x="350" y="610" as="targetPoint" />
          </mxGeometry>
        </mxCell>
        <mxCell id="phy1LCydoq4TG-cayTl3-39" value="קלוט נתון למשתנה N.&lt;br/&gt;סכם את כל המספרים עד N המתחלקים ב- 4 ואת כל המתחלקים ב- ,7 לסכום&lt;br/&gt;אחד. הדפס את התוצאה )כמה לולאות צריך לפתרון השאלה?(" style="shape=note;whiteSpace=wrap;html=1;backgroundOutline=1;fontColor=#000000;darkOpacity=0.05;fillColor=#FFF9B2;strokeColor=none;fillStyle=solid;direction=west;gradientDirection=north;gradientColor=#FFF2A1;shadow=1;size=20;pointerEvents=1;" parent="1" vertex="1">
          <mxGeometry x="40" y="840" width="140" height="160" as="geometry" />
        </mxCell>
        <mxCell id="phy1LCydoq4TG-cayTl3-40" value="NO&#39; 8" style="text;html=1;align=center;verticalAlign=middle;whiteSpace=wrap;rounded=0;" parent="1" vertex="1">
          <mxGeometry x="280" y="820" width="60" height="30" as="geometry" />
        </mxCell>
        <mxCell id="phy1LCydoq4TG-cayTl3-41" value="start" style="strokeWidth=2;html=1;shape=mxgraph.flowchart.terminator;whiteSpace=wrap;" parent="1" vertex="1">
          <mxGeometry x="260" y="860" width="100" height="60" as="geometry" />
        </mxCell>
        <mxCell id="phy1LCydoq4TG-cayTl3-42" value="" style="verticalLabelPosition=bottom;verticalAlign=top;html=1;shape=card;whiteSpace=wrap;size=20;arcSize=12;" parent="1" vertex="1">
          <mxGeometry x="260" y="940" width="100" height="60" as="geometry" />
        </mxCell>
        <mxCell id="phy1LCydoq4TG-cayTl3-43" value="Num" style="text;html=1;align=center;verticalAlign=middle;whiteSpace=wrap;rounded=0;" parent="1" vertex="1">
          <mxGeometry x="280" y="955" width="60" height="30" as="geometry" />
        </mxCell>
        <mxCell id="phy1LCydoq4TG-cayTl3-44" value="while Index&amp;lt;Num&amp;nbsp;" style="ellipse;whiteSpace=wrap;html=1;aspect=fixed;" parent="1" vertex="1">
          <mxGeometry x="270" y="1180" width="80" height="80" as="geometry" />
        </mxCell>
        <mxCell id="phy1LCydoq4TG-cayTl3-45" value="Index=4" style="rounded=0;whiteSpace=wrap;html=1;" parent="1" vertex="1">
          <mxGeometry x="250" y="1020" width="120" height="60" as="geometry" />
        </mxCell>
        <mxCell id="phy1LCydoq4TG-cayTl3-46" value="Sum=0" style="rounded=0;whiteSpace=wrap;html=1;" parent="1" vertex="1">
          <mxGeometry x="250" y="1100" width="120" height="60" as="geometry" />
        </mxCell>
        <mxCell id="phy1LCydoq4TG-cayTl3-51" value="" style="group" parent="1" vertex="1" connectable="0">
          <mxGeometry x="150" y="1510" width="200" height="160" as="geometry" />
        </mxCell>
        <mxCell id="phy1LCydoq4TG-cayTl3-52" value="if Index%7=0" style="rhombus;whiteSpace=wrap;html=1;" parent="phy1LCydoq4TG-cayTl3-51" vertex="1">
          <mxGeometry x="120" width="80" height="80" as="geometry" />
        </mxCell>
        <mxCell id="phy1LCydoq4TG-cayTl3-53" value="Sum=Sum+ Index" style="rounded=0;whiteSpace=wrap;html=1;" parent="phy1LCydoq4TG-cayTl3-51" vertex="1">
          <mxGeometry y="100" width="120" height="60" as="geometry" />
        </mxCell>
        <mxCell id="phy1LCydoq4TG-cayTl3-59" value="" style="endArrow=classic;html=1;rounded=0;" parent="phy1LCydoq4TG-cayTl3-51" source="phy1LCydoq4TG-cayTl3-52" target="phy1LCydoq4TG-cayTl3-53" edge="1">
          <mxGeometry width="50" height="50" relative="1" as="geometry">
            <mxPoint x="150" y="80" as="sourcePoint" />
            <mxPoint x="200" y="30" as="targetPoint" />
            <Array as="points">
              <mxPoint x="60" y="40" />
            </Array>
          </mxGeometry>
        </mxCell>
        <mxCell id="phy1LCydoq4TG-cayTl3-48" value="if Index%4=0" style="rhombus;whiteSpace=wrap;html=1;" parent="1" vertex="1">
          <mxGeometry x="270" y="1280" width="80" height="80" as="geometry" />
        </mxCell>
        <mxCell id="phy1LCydoq4TG-cayTl3-49" value="Sum=Sum+ Index" style="rounded=0;whiteSpace=wrap;html=1;" parent="1" vertex="1">
          <mxGeometry x="150" y="1380" width="120" height="60" as="geometry" />
        </mxCell>
        <mxCell id="phy1LCydoq4TG-cayTl3-55" value="" style="ellipse;whiteSpace=wrap;html=1;aspect=fixed;" parent="1" vertex="1">
          <mxGeometry x="295" y="1460" width="30" height="30" as="geometry" />
        </mxCell>
        <mxCell id="phy1LCydoq4TG-cayTl3-56" value="" style="endArrow=classic;html=1;rounded=0;" parent="1" source="phy1LCydoq4TG-cayTl3-48" target="phy1LCydoq4TG-cayTl3-49" edge="1">
          <mxGeometry width="50" height="50" relative="1" as="geometry">
            <mxPoint x="300" y="1550" as="sourcePoint" />
            <mxPoint x="350" y="1500" as="targetPoint" />
            <Array as="points">
              <mxPoint x="210" y="1320" />
            </Array>
          </mxGeometry>
        </mxCell>
        <mxCell id="phy1LCydoq4TG-cayTl3-57" value="" style="endArrow=classic;html=1;rounded=0;entryX=1;entryY=0.5;entryDx=0;entryDy=0;exitX=1;exitY=0.5;exitDx=0;exitDy=0;" parent="1" source="phy1LCydoq4TG-cayTl3-48" target="phy1LCydoq4TG-cayTl3-55" edge="1">
          <mxGeometry width="50" height="50" relative="1" as="geometry">
            <mxPoint x="300" y="1550" as="sourcePoint" />
            <mxPoint x="350" y="1500" as="targetPoint" />
            <Array as="points">
              <mxPoint x="400" y="1320" />
              <mxPoint x="400" y="1475" />
            </Array>
          </mxGeometry>
        </mxCell>
        <mxCell id="phy1LCydoq4TG-cayTl3-58" value="" style="endArrow=classic;html=1;rounded=0;entryX=0;entryY=0.5;entryDx=0;entryDy=0;" parent="1" source="phy1LCydoq4TG-cayTl3-49" target="phy1LCydoq4TG-cayTl3-55" edge="1">
          <mxGeometry width="50" height="50" relative="1" as="geometry">
            <mxPoint x="300" y="1550" as="sourcePoint" />
            <mxPoint x="350" y="1500" as="targetPoint" />
            <Array as="points">
              <mxPoint x="210" y="1475" />
            </Array>
          </mxGeometry>
        </mxCell>
        <mxCell id="phy1LCydoq4TG-cayTl3-60" value="" style="endArrow=classic;html=1;rounded=0;exitX=1;exitY=0.5;exitDx=0;exitDy=0;entryX=1;entryY=0.5;entryDx=0;entryDy=0;" parent="1" source="phy1LCydoq4TG-cayTl3-52" target="phy1LCydoq4TG-cayTl3-61" edge="1">
          <mxGeometry width="50" height="50" relative="1" as="geometry">
            <mxPoint x="300" y="1590" as="sourcePoint" />
            <mxPoint x="350" y="1540" as="targetPoint" />
            <Array as="points">
              <mxPoint x="400" y="1550" />
              <mxPoint x="400" y="1705" />
            </Array>
          </mxGeometry>
        </mxCell>
        <mxCell id="phy1LCydoq4TG-cayTl3-61" value="" style="ellipse;whiteSpace=wrap;html=1;aspect=fixed;" parent="1" vertex="1">
          <mxGeometry x="295" y="1690" width="30" height="30" as="geometry" />
        </mxCell>
        <mxCell id="phy1LCydoq4TG-cayTl3-62" value="" style="endArrow=classic;html=1;rounded=0;entryX=0;entryY=0.5;entryDx=0;entryDy=0;" parent="1" source="phy1LCydoq4TG-cayTl3-53" target="phy1LCydoq4TG-cayTl3-61" edge="1">
          <mxGeometry width="50" height="50" relative="1" as="geometry">
            <mxPoint x="300" y="1590" as="sourcePoint" />
            <mxPoint x="350" y="1540" as="targetPoint" />
            <Array as="points">
              <mxPoint x="210" y="1705" />
            </Array>
          </mxGeometry>
        </mxCell>
        <mxCell id="phy1LCydoq4TG-cayTl3-65" value="Sum" style="shape=document;whiteSpace=wrap;html=1;boundedLbl=1;" parent="1" vertex="1">
          <mxGeometry x="440" y="1320" width="120" height="80" as="geometry" />
        </mxCell>
        <mxCell id="phy1LCydoq4TG-cayTl3-66" value="end" style="strokeWidth=2;html=1;shape=mxgraph.flowchart.terminator;whiteSpace=wrap;" parent="1" vertex="1">
          <mxGeometry x="450" y="1420" width="100" height="60" as="geometry" />
        </mxCell>
        <mxCell id="phy1LCydoq4TG-cayTl3-67" value="" style="endArrow=classic;html=1;rounded=0;" parent="1" source="phy1LCydoq4TG-cayTl3-46" target="phy1LCydoq4TG-cayTl3-44" edge="1">
          <mxGeometry width="50" height="50" relative="1" as="geometry">
            <mxPoint x="300" y="1320" as="sourcePoint" />
            <mxPoint x="350" y="1270" as="targetPoint" />
          </mxGeometry>
        </mxCell>
        <mxCell id="phy1LCydoq4TG-cayTl3-68" value="" style="endArrow=classic;html=1;rounded=0;entryX=0.5;entryY=0;entryDx=0;entryDy=0;" parent="1" source="phy1LCydoq4TG-cayTl3-44" target="phy1LCydoq4TG-cayTl3-48" edge="1">
          <mxGeometry width="50" height="50" relative="1" as="geometry">
            <mxPoint x="300" y="1190" as="sourcePoint" />
            <mxPoint x="350" y="1140" as="targetPoint" />
          </mxGeometry>
        </mxCell>
        <mxCell id="phy1LCydoq4TG-cayTl3-69" value="" style="endArrow=classic;html=1;rounded=0;" parent="1" source="phy1LCydoq4TG-cayTl3-45" target="phy1LCydoq4TG-cayTl3-46" edge="1">
          <mxGeometry width="50" height="50" relative="1" as="geometry">
            <mxPoint x="300" y="1050" as="sourcePoint" />
            <mxPoint x="350" y="1000" as="targetPoint" />
          </mxGeometry>
        </mxCell>
        <mxCell id="phy1LCydoq4TG-cayTl3-70" value="" style="endArrow=classic;html=1;rounded=0;" parent="1" source="phy1LCydoq4TG-cayTl3-42" target="phy1LCydoq4TG-cayTl3-45" edge="1">
          <mxGeometry width="50" height="50" relative="1" as="geometry">
            <mxPoint x="300" y="1050" as="sourcePoint" />
            <mxPoint x="350" y="1000" as="targetPoint" />
          </mxGeometry>
        </mxCell>
        <mxCell id="phy1LCydoq4TG-cayTl3-71" value="" style="endArrow=classic;html=1;rounded=0;" parent="1" source="phy1LCydoq4TG-cayTl3-41" target="phy1LCydoq4TG-cayTl3-42" edge="1">
          <mxGeometry width="50" height="50" relative="1" as="geometry">
            <mxPoint x="300" y="1050" as="sourcePoint" />
            <mxPoint x="350" y="1000" as="targetPoint" />
          </mxGeometry>
        </mxCell>
        <mxCell id="phy1LCydoq4TG-cayTl3-74" value="Index=Index+4" style="rounded=0;whiteSpace=wrap;html=1;" parent="1" vertex="1">
          <mxGeometry x="250" y="1740" width="120" height="60" as="geometry" />
        </mxCell>
        <mxCell id="phy1LCydoq4TG-cayTl3-76" value="" style="endArrow=classic;html=1;rounded=0;" parent="1" source="phy1LCydoq4TG-cayTl3-61" target="phy1LCydoq4TG-cayTl3-74" edge="1">
          <mxGeometry width="50" height="50" relative="1" as="geometry">
            <mxPoint x="300" y="1720" as="sourcePoint" />
            <mxPoint x="350" y="1670" as="targetPoint" />
          </mxGeometry>
        </mxCell>
        <mxCell id="phy1LCydoq4TG-cayTl3-63" value="" style="rounded=0;whiteSpace=wrap;html=1;fillColor=#000000;" parent="1" vertex="1">
          <mxGeometry x="135" y="1820" width="350" height="10" as="geometry" />
        </mxCell>
        <mxCell id="phy1LCydoq4TG-cayTl3-80" value="" style="endArrow=classic;html=1;rounded=0;entryX=0.5;entryY=0;entryDx=0;entryDy=0;" parent="1" source="phy1LCydoq4TG-cayTl3-74" target="phy1LCydoq4TG-cayTl3-63" edge="1">
          <mxGeometry width="50" height="50" relative="1" as="geometry">
            <mxPoint x="300" y="1720" as="sourcePoint" />
            <mxPoint x="350" y="1670" as="targetPoint" />
          </mxGeometry>
        </mxCell>
        <mxCell id="phy1LCydoq4TG-cayTl3-81" value="" style="endArrow=classic;html=1;rounded=0;" parent="1" source="phy1LCydoq4TG-cayTl3-44" target="phy1LCydoq4TG-cayTl3-65" edge="1">
          <mxGeometry width="50" height="50" relative="1" as="geometry">
            <mxPoint x="300" y="1350" as="sourcePoint" />
            <mxPoint x="350" y="1300" as="targetPoint" />
            <Array as="points">
              <mxPoint x="500" y="1220" />
            </Array>
          </mxGeometry>
        </mxCell>
        <mxCell id="phy1LCydoq4TG-cayTl3-82" value="" style="endArrow=classic;html=1;rounded=0;exitX=0.508;exitY=0.864;exitDx=0;exitDy=0;exitPerimeter=0;" parent="1" source="phy1LCydoq4TG-cayTl3-65" target="phy1LCydoq4TG-cayTl3-66" edge="1">
          <mxGeometry width="50" height="50" relative="1" as="geometry">
            <mxPoint x="300" y="1350" as="sourcePoint" />
            <mxPoint x="350" y="1300" as="targetPoint" />
          </mxGeometry>
        </mxCell>
        <mxCell id="phy1LCydoq4TG-cayTl3-83" value="" style="endArrow=classic;html=1;rounded=0;entryX=0.5;entryY=0;entryDx=0;entryDy=0;" parent="1" source="phy1LCydoq4TG-cayTl3-55" target="phy1LCydoq4TG-cayTl3-52" edge="1">
          <mxGeometry width="50" height="50" relative="1" as="geometry">
            <mxPoint x="300" y="1490" as="sourcePoint" />
            <mxPoint x="350" y="1440" as="targetPoint" />
          </mxGeometry>
        </mxCell>
      </root>
    </mxGraphModel>
  </diagram>
  <diagram id="XtwcCuSdwcQEeBQ7_WfX" name="‫עמוד-2‬">
    <mxGraphModel dx="631" dy="436" grid="1" gridSize="10" guides="1" tooltips="1" connect="1" arrows="1" fold="1" page="1" pageScale="1" pageWidth="827" pageHeight="1169" math="0" shadow="0">
      <root>
        <mxCell id="0" />
        <mxCell id="1" parent="0" />
        <mxCell id="MVdXvuCwPnWuXo0FttMd-2" value="Page37" style="text;html=1;align=center;verticalAlign=middle;whiteSpace=wrap;rounded=0;" parent="1" vertex="1">
          <mxGeometry x="384" y="20" width="60" height="30" as="geometry" />
        </mxCell>
        <mxCell id="k-_amzswSAy7bOWVUIC--1" value="No&#39; 18" style="text;html=1;align=center;verticalAlign=middle;whiteSpace=wrap;rounded=0;" parent="1" vertex="1">
          <mxGeometry x="250" y="50" width="60" height="30" as="geometry" />
        </mxCell>
        <mxCell id="k-_amzswSAy7bOWVUIC--2" value="קלוט מספר טבעי amount, ועוד amount נתונים.&lt;br/&gt;הצג את הערך השני בגודלו מבין amount הנתונים ואת המספר הסידורי של המופע&lt;br/&gt;האחרון של אותו ערך בקלט." style="shape=note;whiteSpace=wrap;html=1;backgroundOutline=1;fontColor=#000000;darkOpacity=0.05;fillColor=#FFF9B2;strokeColor=none;fillStyle=solid;direction=west;gradientDirection=north;gradientColor=#FFF2A1;shadow=1;size=20;pointerEvents=1;" parent="1" vertex="1">
          <mxGeometry x="10" y="60" width="140" height="110" as="geometry" />
        </mxCell>
        <mxCell id="k-_amzswSAy7bOWVUIC--3" value="start" style="strokeWidth=2;html=1;shape=mxgraph.flowchart.terminator;whiteSpace=wrap;" parent="1" vertex="1">
          <mxGeometry x="230" y="90" width="100" height="60" as="geometry" />
        </mxCell>
        <mxCell id="k-_amzswSAy7bOWVUIC--4" value="" style="verticalLabelPosition=bottom;verticalAlign=top;html=1;shape=card;whiteSpace=wrap;size=20;arcSize=12;" parent="1" vertex="1">
          <mxGeometry x="230" y="170" width="100" height="60" as="geometry" />
        </mxCell>
        <mxCell id="k-_amzswSAy7bOWVUIC--5" value="Num" style="text;html=1;align=center;verticalAlign=middle;whiteSpace=wrap;rounded=0;" parent="1" vertex="1">
          <mxGeometry x="250" y="185" width="60" height="30" as="geometry" />
        </mxCell>
        <mxCell id="k-_amzswSAy7bOWVUIC--9" value="HighestNumber= -1&lt;br style=&quot;font-size: 9px;&quot;&gt;SecoundHighestNumber=0&lt;br style=&quot;font-size: 9px;&quot;&gt;SecoundLastSerialNumber= -1&lt;br style=&quot;font-size: 9px;&quot;&gt;SerialNumber=1&lt;br&gt;HigheSerialNumber=0" style="rounded=0;whiteSpace=wrap;html=1;fontSize=9;" parent="1" vertex="1">
          <mxGeometry x="220" y="250" width="120" height="90" as="geometry" />
        </mxCell>
        <mxCell id="k-_amzswSAy7bOWVUIC--14" value="while&amp;nbsp;SerialNumber&amp;lt;=Num" style="ellipse;whiteSpace=wrap;html=1;aspect=fixed;fontSize=10;" parent="1" vertex="1">
          <mxGeometry x="220" y="360" width="120" height="120" as="geometry" />
        </mxCell>
        <mxCell id="k-_amzswSAy7bOWVUIC--16" value="" style="verticalLabelPosition=bottom;verticalAlign=top;html=1;shape=card;whiteSpace=wrap;size=20;arcSize=12;" parent="1" vertex="1">
          <mxGeometry x="230" y="500" width="100" height="60" as="geometry" />
        </mxCell>
        <mxCell id="k-_amzswSAy7bOWVUIC--17" value="NewNum" style="text;html=1;align=center;verticalAlign=middle;whiteSpace=wrap;rounded=0;" parent="1" vertex="1">
          <mxGeometry x="250" y="515" width="60" height="30" as="geometry" />
        </mxCell>
        <mxCell id="k-_amzswSAy7bOWVUIC--18" value="if NewNum&amp;gt;HighestNumber" style="rhombus;whiteSpace=wrap;html=1;fontSize=10;" parent="1" vertex="1">
          <mxGeometry x="215" y="580" width="130" height="120" as="geometry" />
        </mxCell>
        <mxCell id="k-_amzswSAy7bOWVUIC--19" value="SecoundHighestNumber=&lt;br style=&quot;font-size: 9px;&quot;&gt;HighestNumber&lt;br style=&quot;font-size: 9px;&quot;&gt;&amp;nbsp;HighestNumber=NewNum&lt;br style=&quot;font-size: 9px;&quot;&gt;SecoundLastSerialNumber=&lt;br style=&quot;font-size: 9px;&quot;&gt;HigheSerialNumber&lt;br&gt;HigheSerialNumber=&lt;br&gt;SerialNumber&lt;div&gt;&lt;br&gt;&lt;/div&gt;" style="rounded=0;whiteSpace=wrap;html=1;fontSize=9;" parent="1" vertex="1">
          <mxGeometry x="90" y="700" width="120" height="90" as="geometry" />
        </mxCell>
        <mxCell id="k-_amzswSAy7bOWVUIC--20" value="" style="endArrow=classic;html=1;rounded=0;" parent="1" source="k-_amzswSAy7bOWVUIC--18" target="k-_amzswSAy7bOWVUIC--19" edge="1">
          <mxGeometry width="50" height="50" relative="1" as="geometry">
            <mxPoint x="300" y="650" as="sourcePoint" />
            <mxPoint x="350" y="600" as="targetPoint" />
            <Array as="points">
              <mxPoint x="150" y="640" />
            </Array>
          </mxGeometry>
        </mxCell>
        <mxCell id="k-_amzswSAy7bOWVUIC--56" value="" style="endArrow=classic;html=1;rounded=0;" parent="1" source="k-_amzswSAy7bOWVUIC--14" target="k-_amzswSAy7bOWVUIC--16" edge="1">
          <mxGeometry width="50" height="50" relative="1" as="geometry">
            <mxPoint x="430" y="610" as="sourcePoint" />
            <mxPoint x="480" y="560" as="targetPoint" />
          </mxGeometry>
        </mxCell>
        <mxCell id="k-_amzswSAy7bOWVUIC--57" value="" style="endArrow=classic;html=1;rounded=0;entryX=0.5;entryY=0;entryDx=0;entryDy=0;" parent="1" target="k-_amzswSAy7bOWVUIC--18" edge="1">
          <mxGeometry width="50" height="50" relative="1" as="geometry">
            <mxPoint x="280" y="560" as="sourcePoint" />
            <mxPoint x="480" y="560" as="targetPoint" />
          </mxGeometry>
        </mxCell>
        <mxCell id="k-_amzswSAy7bOWVUIC--60" value="" style="endArrow=classic;html=1;rounded=0;" parent="1" source="k-_amzswSAy7bOWVUIC--3" target="k-_amzswSAy7bOWVUIC--4" edge="1">
          <mxGeometry width="50" height="50" relative="1" as="geometry">
            <mxPoint x="310" y="370" as="sourcePoint" />
            <mxPoint x="360" y="320" as="targetPoint" />
          </mxGeometry>
        </mxCell>
        <mxCell id="k-_amzswSAy7bOWVUIC--61" value="" style="endArrow=classic;html=1;rounded=0;" parent="1" source="k-_amzswSAy7bOWVUIC--4" target="k-_amzswSAy7bOWVUIC--9" edge="1">
          <mxGeometry width="50" height="50" relative="1" as="geometry">
            <mxPoint x="310" y="370" as="sourcePoint" />
            <mxPoint x="360" y="320" as="targetPoint" />
          </mxGeometry>
        </mxCell>
        <mxCell id="k-_amzswSAy7bOWVUIC--62" value="" style="endArrow=classic;html=1;rounded=0;" parent="1" source="k-_amzswSAy7bOWVUIC--9" target="k-_amzswSAy7bOWVUIC--14" edge="1">
          <mxGeometry width="50" height="50" relative="1" as="geometry">
            <mxPoint x="310" y="370" as="sourcePoint" />
            <mxPoint x="360" y="320" as="targetPoint" />
          </mxGeometry>
        </mxCell>
        <mxCell id="k-_amzswSAy7bOWVUIC--77" value="" style="endArrow=classic;html=1;rounded=0;" parent="1" source="k-_amzswSAy7bOWVUIC--18" edge="1">
          <mxGeometry width="50" height="50" relative="1" as="geometry">
            <mxPoint x="300" y="880" as="sourcePoint" />
            <mxPoint x="530" y="660" as="targetPoint" />
            <Array as="points">
              <mxPoint x="530" y="640" />
            </Array>
          </mxGeometry>
        </mxCell>
        <mxCell id="AWtv-IuMFlvfbwjlddXE-8" value="if NewNum=&lt;br&gt;HighestNumber" style="rhombus;whiteSpace=wrap;html=1;" parent="1" vertex="1">
          <mxGeometry x="460" y="660" width="140" height="130" as="geometry" />
        </mxCell>
        <mxCell id="AWtv-IuMFlvfbwjlddXE-11" value="SerialNumber++" style="rounded=0;whiteSpace=wrap;html=1;" parent="1" vertex="1">
          <mxGeometry x="220" y="1280" width="120" height="60" as="geometry" />
        </mxCell>
        <mxCell id="AWtv-IuMFlvfbwjlddXE-12" value="&lt;font style=&quot;font-size: 12px;&quot;&gt;HigheSerialNumber=&lt;br style=&quot;border-color: var(--border-color);&quot;&gt;SerialNumber&lt;/font&gt;" style="rounded=0;whiteSpace=wrap;html=1;" parent="1" vertex="1">
          <mxGeometry x="340" y="790" width="120" height="60" as="geometry" />
        </mxCell>
        <mxCell id="AWtv-IuMFlvfbwjlddXE-14" value="" style="endArrow=classic;html=1;rounded=0;" parent="1" source="AWtv-IuMFlvfbwjlddXE-8" target="AWtv-IuMFlvfbwjlddXE-12" edge="1">
          <mxGeometry width="50" height="50" relative="1" as="geometry">
            <mxPoint x="330" y="880" as="sourcePoint" />
            <mxPoint x="380" y="830" as="targetPoint" />
            <Array as="points">
              <mxPoint x="400" y="725" />
            </Array>
          </mxGeometry>
        </mxCell>
        <mxCell id="AWtv-IuMFlvfbwjlddXE-16" value="" style="endArrow=classic;html=1;rounded=0;entryX=0;entryY=0.5;entryDx=0;entryDy=0;" parent="1" source="AWtv-IuMFlvfbwjlddXE-12" target="jfo6Su6AsvSNJM_UeraP-10" edge="1">
          <mxGeometry width="50" height="50" relative="1" as="geometry">
            <mxPoint x="330" y="880" as="sourcePoint" />
            <mxPoint x="230" y="910" as="targetPoint" />
            <Array as="points">
              <mxPoint x="400" y="880" />
              <mxPoint x="400" y="1120" />
            </Array>
          </mxGeometry>
        </mxCell>
        <mxCell id="AWtv-IuMFlvfbwjlddXE-17" value="" style="ellipse;whiteSpace=wrap;html=1;aspect=fixed;" parent="1" vertex="1">
          <mxGeometry x="270" y="1240" width="20" height="20" as="geometry" />
        </mxCell>
        <mxCell id="AWtv-IuMFlvfbwjlddXE-19" value="" style="endArrow=classic;html=1;rounded=0;entryX=0;entryY=0.5;entryDx=0;entryDy=0;" parent="1" source="k-_amzswSAy7bOWVUIC--19" target="AWtv-IuMFlvfbwjlddXE-17" edge="1">
          <mxGeometry width="50" height="50" relative="1" as="geometry">
            <mxPoint x="330" y="910" as="sourcePoint" />
            <mxPoint x="380" y="860" as="targetPoint" />
            <Array as="points">
              <mxPoint x="150" y="910" />
              <mxPoint x="150" y="1250" />
            </Array>
          </mxGeometry>
        </mxCell>
        <mxCell id="AWtv-IuMFlvfbwjlddXE-28" value="" style="endArrow=classic;html=1;rounded=0;exitX=1;exitY=0.5;exitDx=0;exitDy=0;" parent="1" source="k-_amzswSAy7bOWVUIC--14" target="k-_amzswSAy7bOWVUIC--44" edge="1">
          <mxGeometry width="50" height="50" relative="1" as="geometry">
            <mxPoint x="500" y="650" as="sourcePoint" />
            <mxPoint x="550" y="600" as="targetPoint" />
            <Array as="points">
              <mxPoint x="740" y="420" />
              <mxPoint x="940" y="420" />
            </Array>
          </mxGeometry>
        </mxCell>
        <mxCell id="AWtv-IuMFlvfbwjlddXE-34" value="" style="rounded=0;whiteSpace=wrap;html=1;fillColor=#000000;" parent="1" vertex="1">
          <mxGeometry x="200" y="1360" width="160" height="10" as="geometry" />
        </mxCell>
        <mxCell id="AWtv-IuMFlvfbwjlddXE-35" value="" style="endArrow=classic;html=1;rounded=0;" parent="1" source="AWtv-IuMFlvfbwjlddXE-11" target="AWtv-IuMFlvfbwjlddXE-34" edge="1">
          <mxGeometry width="50" height="50" relative="1" as="geometry">
            <mxPoint x="310" y="1350" as="sourcePoint" />
            <mxPoint x="360" y="1300" as="targetPoint" />
          </mxGeometry>
        </mxCell>
        <mxCell id="jfo6Su6AsvSNJM_UeraP-3" value="" style="endArrow=classic;html=1;rounded=0;exitX=0.5;exitY=1;exitDx=0;exitDy=0;entryX=1;entryY=0.5;entryDx=0;entryDy=0;" edge="1" parent="1" source="AWtv-IuMFlvfbwjlddXE-1" target="jfo6Su6AsvSNJM_UeraP-10">
          <mxGeometry width="50" height="50" relative="1" as="geometry">
            <mxPoint x="250" y="1190" as="sourcePoint" />
            <mxPoint x="300" y="1140" as="targetPoint" />
            <Array as="points">
              <mxPoint x="720" y="1120" />
            </Array>
          </mxGeometry>
        </mxCell>
        <mxCell id="jfo6Su6AsvSNJM_UeraP-6" value="" style="endArrow=classic;html=1;rounded=0;exitX=0.5;exitY=1;exitDx=0;exitDy=0;" edge="1" parent="1" source="AWtv-IuMFlvfbwjlddXE-17" target="AWtv-IuMFlvfbwjlddXE-11">
          <mxGeometry width="50" height="50" relative="1" as="geometry">
            <mxPoint x="290" y="1210" as="sourcePoint" />
            <mxPoint x="340" y="1160" as="targetPoint" />
          </mxGeometry>
        </mxCell>
        <mxCell id="jfo6Su6AsvSNJM_UeraP-7" style="edgeStyle=orthogonalEdgeStyle;rounded=0;orthogonalLoop=1;jettySize=auto;html=1;exitX=0.5;exitY=0;exitDx=0;exitDy=0;entryX=0.5;entryY=1;entryDx=0;entryDy=0;" edge="1" parent="1" source="AWtv-IuMFlvfbwjlddXE-34" target="AWtv-IuMFlvfbwjlddXE-34">
          <mxGeometry relative="1" as="geometry" />
        </mxCell>
        <mxCell id="k-_amzswSAy7bOWVUIC--73" value="SecoundHighestNumber=&lt;br style=&quot;border-color: var(--border-color);&quot;&gt;&lt;span style=&quot;border-color: var(--border-color);&quot;&gt;&amp;nbsp;NewNum&lt;/span&gt;" style="rounded=0;whiteSpace=wrap;html=1;fontSize=10;" parent="1" vertex="1">
          <mxGeometry x="530" y="920" width="120" height="60" as="geometry" />
        </mxCell>
        <mxCell id="k-_amzswSAy7bOWVUIC--74" value="SecoundHighestNumber&amp;lt;=&lt;br style=&quot;border-color: var(--border-color); font-size: 10px;&quot;&gt;&lt;span style=&quot;font-size: 10px;&quot;&gt;&amp;nbsp;NewNum&amp;amp;&amp;amp;&lt;/span&gt;SerialNumber&amp;gt;1" style="rhombus;whiteSpace=wrap;html=1;fontSize=10;" parent="1" vertex="1">
          <mxGeometry x="650" y="790" width="140" height="130" as="geometry" />
        </mxCell>
        <mxCell id="k-_amzswSAy7bOWVUIC--78" value="" style="endArrow=classic;html=1;rounded=0;exitX=0;exitY=0.5;exitDx=0;exitDy=0;entryX=0.5;entryY=0;entryDx=0;entryDy=0;" parent="1" source="k-_amzswSAy7bOWVUIC--74" target="k-_amzswSAy7bOWVUIC--73" edge="1">
          <mxGeometry width="50" height="50" relative="1" as="geometry">
            <mxPoint x="485" y="970" as="sourcePoint" />
            <mxPoint x="535" y="920" as="targetPoint" />
            <Array as="points">
              <mxPoint x="590" y="855" />
            </Array>
          </mxGeometry>
        </mxCell>
        <mxCell id="k-_amzswSAy7bOWVUIC--80" value="SecoundLastSerialNumber=&lt;br style=&quot;font-size: 9px;&quot;&gt;SerialNumber" style="rounded=0;whiteSpace=wrap;html=1;fontSize=9;" parent="1" vertex="1">
          <mxGeometry x="530" y="999" width="120" height="60" as="geometry" />
        </mxCell>
        <mxCell id="AWtv-IuMFlvfbwjlddXE-1" value="" style="ellipse;whiteSpace=wrap;html=1;aspect=fixed;" parent="1" vertex="1">
          <mxGeometry x="710" y="1080" width="20" height="20" as="geometry" />
        </mxCell>
        <mxCell id="AWtv-IuMFlvfbwjlddXE-3" value="" style="endArrow=classic;html=1;rounded=0;exitX=1;exitY=0.5;exitDx=0;exitDy=0;entryX=1;entryY=0.5;entryDx=0;entryDy=0;" parent="1" source="k-_amzswSAy7bOWVUIC--74" target="AWtv-IuMFlvfbwjlddXE-1" edge="1">
          <mxGeometry width="50" height="50" relative="1" as="geometry">
            <mxPoint x="635" y="910" as="sourcePoint" />
            <mxPoint x="685" y="860" as="targetPoint" />
            <Array as="points">
              <mxPoint x="850" y="855" />
              <mxPoint x="850" y="1090" />
            </Array>
          </mxGeometry>
        </mxCell>
        <mxCell id="jfo6Su6AsvSNJM_UeraP-1" value="" style="endArrow=classic;html=1;rounded=0;" edge="1" parent="1" source="k-_amzswSAy7bOWVUIC--73" target="k-_amzswSAy7bOWVUIC--80">
          <mxGeometry width="50" height="50" relative="1" as="geometry">
            <mxPoint x="690" y="1040" as="sourcePoint" />
            <mxPoint x="740" y="990" as="targetPoint" />
          </mxGeometry>
        </mxCell>
        <mxCell id="jfo6Su6AsvSNJM_UeraP-2" value="" style="endArrow=classic;html=1;rounded=0;entryX=0;entryY=0.5;entryDx=0;entryDy=0;" edge="1" parent="1" source="k-_amzswSAy7bOWVUIC--80" target="AWtv-IuMFlvfbwjlddXE-1">
          <mxGeometry width="50" height="50" relative="1" as="geometry">
            <mxPoint x="690" y="1040" as="sourcePoint" />
            <mxPoint x="740" y="990" as="targetPoint" />
            <Array as="points">
              <mxPoint x="590" y="1090" />
            </Array>
          </mxGeometry>
        </mxCell>
        <mxCell id="jfo6Su6AsvSNJM_UeraP-8" value="" style="endArrow=classic;html=1;rounded=0;exitX=1;exitY=0.5;exitDx=0;exitDy=0;entryX=0.5;entryY=0;entryDx=0;entryDy=0;" edge="1" parent="1" source="AWtv-IuMFlvfbwjlddXE-8" target="k-_amzswSAy7bOWVUIC--74">
          <mxGeometry width="50" height="50" relative="1" as="geometry">
            <mxPoint x="540" y="900" as="sourcePoint" />
            <mxPoint x="590" y="850" as="targetPoint" />
            <Array as="points">
              <mxPoint x="720" y="725" />
            </Array>
          </mxGeometry>
        </mxCell>
        <mxCell id="jfo6Su6AsvSNJM_UeraP-9" value="" style="group" vertex="1" connectable="0" parent="1">
          <mxGeometry x="880" y="480" width="121.25" height="260" as="geometry" />
        </mxCell>
        <mxCell id="k-_amzswSAy7bOWVUIC--44" value="" style="shape=document;whiteSpace=wrap;html=1;boundedLbl=1;" parent="jfo6Su6AsvSNJM_UeraP-9" vertex="1">
          <mxGeometry width="120" height="80" as="geometry" />
        </mxCell>
        <mxCell id="k-_amzswSAy7bOWVUIC--46" value="SecoundLastSerialNumber" style="shape=document;whiteSpace=wrap;html=1;boundedLbl=1;fontSize=10;" parent="jfo6Su6AsvSNJM_UeraP-9" vertex="1">
          <mxGeometry y="100" width="121.25" height="80" as="geometry" />
        </mxCell>
        <mxCell id="k-_amzswSAy7bOWVUIC--47" value="end" style="strokeWidth=2;html=1;shape=mxgraph.flowchart.terminator;whiteSpace=wrap;" parent="jfo6Su6AsvSNJM_UeraP-9" vertex="1">
          <mxGeometry x="10.629999999999995" y="200" width="100" height="60" as="geometry" />
        </mxCell>
        <mxCell id="AWtv-IuMFlvfbwjlddXE-29" value="" style="endArrow=classic;html=1;rounded=0;exitX=0.502;exitY=0.845;exitDx=0;exitDy=0;exitPerimeter=0;" parent="jfo6Su6AsvSNJM_UeraP-9" source="k-_amzswSAy7bOWVUIC--46" target="k-_amzswSAy7bOWVUIC--47" edge="1">
          <mxGeometry width="50" height="50" relative="1" as="geometry">
            <mxPoint x="-178.75" y="170" as="sourcePoint" />
            <mxPoint x="-128.75" y="120" as="targetPoint" />
          </mxGeometry>
        </mxCell>
        <mxCell id="AWtv-IuMFlvfbwjlddXE-30" value="" style="endArrow=classic;html=1;rounded=0;" parent="jfo6Su6AsvSNJM_UeraP-9" target="k-_amzswSAy7bOWVUIC--46" edge="1">
          <mxGeometry width="50" height="50" relative="1" as="geometry">
            <mxPoint x="60.25" y="70" as="sourcePoint" />
            <mxPoint x="63.25" y="110" as="targetPoint" />
          </mxGeometry>
        </mxCell>
        <mxCell id="AWtv-IuMFlvfbwjlddXE-33" value="SecoundHighestNumber" style="text;html=1;align=center;verticalAlign=middle;whiteSpace=wrap;rounded=0;fontSize=11;" parent="jfo6Su6AsvSNJM_UeraP-9" vertex="1">
          <mxGeometry x="30" y="20" width="60" height="30" as="geometry" />
        </mxCell>
        <mxCell id="jfo6Su6AsvSNJM_UeraP-10" value="" style="ellipse;whiteSpace=wrap;html=1;aspect=fixed;" vertex="1" parent="1">
          <mxGeometry x="510" y="1110" width="20" height="20" as="geometry" />
        </mxCell>
        <mxCell id="jfo6Su6AsvSNJM_UeraP-11" value="" style="endArrow=classic;html=1;rounded=0;exitX=0.5;exitY=1;exitDx=0;exitDy=0;entryX=1;entryY=0.5;entryDx=0;entryDy=0;" edge="1" parent="1" source="jfo6Su6AsvSNJM_UeraP-10" target="AWtv-IuMFlvfbwjlddXE-17">
          <mxGeometry width="50" height="50" relative="1" as="geometry">
            <mxPoint x="450" y="1070" as="sourcePoint" />
            <mxPoint x="500" y="1020" as="targetPoint" />
            <Array as="points">
              <mxPoint x="520" y="1250" />
            </Array>
          </mxGeometry>
        </mxCell>
      </root>
    </mxGraphModel>
  </diagram>
</mxfile>
